<svg xmlns="http://www.w3.org/2000/svg" width="920" height="460" viewBox="0 0 920 460">
<rect width="100%" height="100%" fill="#ffffff"/>
<line x1="54" y1="406" x2="866" y2="406" stroke="#222"/>
<line x1="54" y1="54" x2="54" y2="406" stroke="#222"/>
<text x="460.0" y="28" text-anchor="middle" font-family="Arial" font-size="18">Best-so-far validation RMSE</text>
<polyline fill="none" stroke="#1167b1" stroke-width="2.5" points="54.00,289.37 57.40,225.06 60.79,100.10 64.19,182.39 67.59,224.32 70.99,247.28 74.38,354.32 77.78,401.58 81.18,402.71 84.58,401.54 87.97,403.10 91.37,402.83 94.77,403.14 98.17,364.47 101.56,295.97 104.96,268.52 108.36,271.25 111.76,291.47 115.15,288.43 118.55,308.21 121.95,353.46 125.35,341.22 128.74,354.56 132.14,335.07 135.54,319.06 138.94,325.66 142.33,192.14 145.73,260.47 149.13,237.31 152.53,268.81 155.92,395.01 159.32,401.55 162.72,401.94 166.12,402.33 169.51,402.12 172.91,402.91 176.31,401.69 179.71,340.32 183.10,314.05 186.50,329.33 189.90,372.91 193.30,403.35 196.69,400.92 200.09,402.70 203.49,403.50 206.89,399.83 210.28,404.01 213.68,399.74 217.08,355.33 220.48,301.83 223.87,182.12 227.27,275.51 230.67,377.89 234.07,284.44 237.46,293.26 240.86,393.84 244.26,398.33 247.66,396.34 251.05,397.28 254.45,397.05 257.85,398.82 261.25,294.17 264.64,311.61 268.04,325.85 271.44,329.54 274.84,359.94 278.23,354.72 281.63,289.51 285.03,318.56 288.43,357.85 291.82,362.56 295.22,402.01 298.62,395.28 302.02,380.26 305.41,164.60 308.81,225.62 312.21,170.32 315.61,308.32 319.00,336.41 322.40,382.39 325.80,404.03 329.20,401.85 332.59,403.10 335.99,369.45 339.39,398.83 342.79,302.30 346.18,276.44 349.58,328.96 352.98,337.68 356.38,298.18 359.77,320.38 363.17,390.57 366.57,394.52 369.97,367.38 373.36,237.15 376.76,361.37 380.16,383.57 383.56,276.83 386.95,173.68 390.35,189.57 393.75,254.90 397.15,338.69 400.54,370.70 403.94,368.16 407.34,372.14 410.74,369.20 414.13,369.21 417.53,370.84 420.93,369.23 424.33,332.09 427.72,355.41 431.12,286.75 434.52,282.52 437.92,326.15 441.31,403.59 444.71,400.50 448.11,403.46 451.51,400.19 454.90,403.48 458.30,400.38 461.70,363.55 465.10,183.55 468.49,159.36 471.89,301.80 475.29,316.54 478.69,290.57 482.08,346.24 485.48,387.20 488.88,402.11 492.28,403.78 495.67,402.86 499.07,404.15 502.47,403.33 505.87,378.83 509.26,334.48 512.66,298.71 516.06,325.61 519.46,304.28 522.85,326.63 526.25,316.54 529.65,301.00 533.05,319.02 536.44,288.63 539.84,363.67 543.24,239.16 546.64,276.08 550.03,249.85 553.43,135.08 556.83,187.30 560.23,345.31 563.62,402.43 567.02,401.05 570.42,403.80 573.82,399.95 577.21,402.15 580.61,400.89 584.01,387.50 587.41,304.58 590.80,213.66 594.20,207.00 597.60,193.46 601.00,173.30 604.39,260.16 607.79,288.84 611.19,339.98 614.59,354.94 617.98,393.07 621.38,394.59 624.78,390.96 628.18,251.90 631.57,135.43 634.97,198.68 638.37,227.16 641.77,328.95 645.16,345.47 648.56,361.04 651.96,367.61 655.36,399.04 658.75,403.85 662.15,402.81 665.55,402.79 668.95,340.82 672.34,285.01 675.74,291.30 679.14,301.61 682.54,309.83 685.93,343.92 689.33,389.79 692.73,389.77 696.13,294.57 699.52,314.83 702.92,316.28 706.32,325.39 709.72,320.98 713.11,185.51 716.51,137.02 719.91,147.34 723.31,277.45 726.70,342.90 730.10,401.26 733.50,378.52 736.90,380.64 740.29,403.01 743.69,402.35 747.09,403.97 750.49,350.88 753.88,285.42 757.28,247.24 760.68,281.29 764.08,260.28 767.47,280.43 770.87,308.60 774.27,364.60 777.67,400.38 781.06,403.29 784.46,395.32 787.86,401.66 791.26,352.99 794.65,200.95 798.05,263.17 801.45,54.00 804.85,184.47 808.24,323.74 811.64,325.68 815.04,328.16 818.44,390.32 821.83,401.07 825.23,403.24 828.63,401.03 832.03,379.45 835.42,334.16 838.82,314.26 842.22,330.11 845.62,324.03 849.01,292.76 852.41,253.79 855.81,301.28 859.21,324.90 862.60,338.81 866.00,363.00"/>
<text x="726" y="54" fill="#1167b1" font-family="Arial" font-size="14">Actual</text>
<polyline fill="none" stroke="#c43d32" stroke-width="2.5" points="54.00,316.16 57.40,292.73 60.79,250.17 64.19,173.06 67.59,230.00 70.99,254.07 74.38,271.10 77.78,355.11 81.18,394.63 84.58,399.04 87.97,399.97 91.37,394.49 94.77,382.19 98.17,371.78 101.56,332.89 104.96,288.89 108.36,284.81 111.76,292.85 115.15,309.28 118.55,306.24 121.95,322.99 125.35,358.96 128.74,344.21 132.14,357.10 135.54,330.64 138.94,313.56 142.33,316.09 145.73,212.79 149.13,280.71 152.53,260.34 155.92,289.97 159.32,390.21 162.72,392.97 166.12,402.80 169.51,402.78 172.91,396.56 176.31,386.20 179.71,373.98 183.10,313.94 186.50,307.21 189.90,328.09 193.30,368.24 196.69,396.78 200.09,398.67 203.49,406.00 206.89,405.35 210.28,395.97 213.68,390.30 217.08,375.15 220.48,330.28 223.87,295.67 227.27,222.33 230.67,299.30 234.07,374.91 237.46,293.63 240.86,318.34 244.26,394.70 247.66,393.53 251.05,394.01 254.45,388.12 257.85,378.55 261.25,373.08 264.64,279.13 268.04,313.92 271.44,325.98 274.84,333.70 278.23,362.43 281.63,357.93 285.03,305.46 288.43,332.60 291.82,356.39 295.22,355.86 298.62,391.14 302.02,377.63 305.41,364.69 308.81,189.49 312.21,260.19 315.61,218.16 319.00,321.89 322.40,338.05 325.80,382.60 329.20,403.48 332.59,403.71 335.99,402.84 339.39,358.69 342.79,379.23 346.18,278.82 349.58,279.98 352.98,327.61 356.38,337.36 359.77,310.49 363.17,334.36 366.57,391.79 369.97,392.79 373.36,369.31 376.76,251.52 380.16,358.14 383.56,362.08 386.95,272.21 390.35,217.74 393.75,234.25 397.15,278.99 400.54,341.89 403.94,367.81 407.34,369.16 410.74,375.59 414.13,368.58 417.53,362.04 420.93,355.09 424.33,348.30 427.72,316.57 431.12,345.58 434.52,290.39 437.92,300.36 441.31,332.86 444.71,398.94 448.11,394.08 451.51,403.74 454.90,396.90 458.30,394.79 461.70,380.78 465.10,338.76 468.49,202.67 471.89,217.73 475.29,315.81 478.69,324.28 482.08,307.36 485.48,356.51 488.88,388.62 492.28,403.16 495.67,402.29 499.07,392.94 502.47,381.33 505.87,370.25 509.26,347.03 512.66,320.21 516.06,305.62 519.46,333.69 522.85,316.07 526.25,338.81 529.65,327.12 533.05,315.32 536.44,327.59 539.84,295.83 543.24,360.40 546.64,244.19 550.03,292.47 553.43,262.48 556.83,191.94 560.23,234.12 563.62,345.23 567.02,392.41 570.42,395.45 573.82,405.35 577.21,398.56 580.61,393.15 584.01,379.02 587.41,357.49 590.80,287.23 594.20,240.95 597.60,250.72 601.00,244.30 604.39,231.70 607.79,288.28 611.19,303.87 614.59,347.02 617.98,357.54 621.38,393.83 624.78,387.53 628.18,377.90 631.57,241.08 634.97,181.31 638.37,237.13 641.77,263.65 645.16,337.68 648.56,347.38 651.96,367.02 655.36,374.23 658.75,403.94 662.15,400.83 665.55,390.76 668.95,376.86 672.34,309.37 675.74,277.39 679.14,297.60 682.54,312.17 685.93,321.51 689.33,350.95 692.73,391.14 696.13,391.01 699.52,304.76 702.92,325.95 706.32,310.66 709.72,317.41 713.11,313.77 716.51,215.60 719.91,203.08 723.31,209.49 726.70,297.07 730.10,344.16 733.50,397.59 736.90,377.56 740.29,386.70 743.69,400.16 747.09,386.81 750.49,377.71 753.88,320.66 757.28,279.30 760.68,267.18 764.08,300.40 767.47,284.70 770.87,303.11 774.27,322.19 777.67,368.77 781.06,399.81 784.46,401.60 787.86,389.86 791.26,386.11 794.65,325.98 798.05,209.58 801.45,279.08 804.85,154.52 808.24,245.45 811.64,333.66 815.04,331.18 818.44,340.59 821.83,396.41 825.23,402.28 828.63,402.87 832.03,388.87 835.42,352.60 838.82,305.36 842.22,299.90 845.62,325.40 849.01,327.08 852.41,308.12 855.81,282.71 859.21,319.19 862.60,332.34 866.00,343.56"/>
<text x="726" y="76" fill="#c43d32" font-family="Arial" font-size="14">Predicted</text>
</svg>